<svg xmlns="http://www.w3.org/2000/svg" width="256" height="256" viewBox="0 0 100 100"><rect width="100" height="100" rx="50" fill="#ffffff"></rect><path fill="#000000" d="M36.51 71.33L28.92 54.07L21.42 54.07L21.42 71.33L16.03 71.33L16.03 28.67L27.98 28.67Q34.25 28.67 37.48 31.94Q40.70 35.21 40.70 41.50L40.70 41.50Q40.70 45.46 38.96 48.40Q37.21 51.35 34.02 52.84L34.02 52.84L42.28 70.98L42.28 71.33L36.51 71.33ZM21.42 33.30L21.42 49.47L27.92 49.47Q31.29 49.47 33.30 47.30Q35.31 45.14 35.31 41.50L35.31 41.50Q35.31 33.30 27.87 33.30L27.87 33.30L21.42 33.30ZM47.88 28.67L54.79 28.67L65.92 63.48L77.06 28.67L83.97 28.67L83.97 71.33L78.61 71.33L78.61 54.72L79.11 38.08L67.94 71.33L63.84 71.33L52.74 38.19L53.24 54.72L53.24 71.33L47.88 71.33L47.88 28.67Z"></path></svg>